<?xml version="1.0" encoding="utf-8"?>
<!-- Generator: Moho 14.3 build 20241125 - Property: MohoScripting.com -->
<!DOCTYPE svg PUBLIC "-//W3C//DTD SVG 1.1//EN" "http://www.w3.org/Graphics/SVG/1.1/DTD/svg11.dtd">
<svg version="1.1" id="Frame_0" xmlns="http://www.w3.org/2000/svg" xmlns:xlink="http://www.w3.org/1999/xlink" width="512px" height="512px">
<path id="#0968B3" fill="#000000" fill-rule="evenodd" stroke="none" d="M 330.255 100.199 C 310.419 100.208 300.604 90.673 299.614 80.456 C 298.530 69.125 309.298 51.224 333.748 51.224 C 355.723 51.233 365.399 65.597 364.885 76.963 C 364.343 88.693 352.940 100.190 330.255 100.199 M 16.090 255.928 C 16.102 327.614 47.355 391.809 97.000 435.693 C 97.018 435.678 293.202 334.527 275.690 291.506 C 251.970 233.217 158.405 224.544 181.306 134.116 C 195.517 77.988 281.762 69.277 281.772 69.271 C 281.772 69.272 280.493 82.730 281.758 88.297 C 282.768 92.740 288.182 102.055 288.183 102.056 C 288.176 102.060 231.476 103.691 220.415 138.848 C 203.606 192.325 351.916 190.481 354.530 328.536 C 356.079 410.339 301.043 491.554 301.040 491.558 C 412.931 469.702 495.897 372.760 495.910 255.928 C 495.926 123.139 388.789 16.017 256.000 16.017 C 123.211 16.017 16.067 123.139 16.090 255.928 Z"/>
</svg>
